<svg width="32" height="32" viewBox="0 0 32 32" fill="none" xmlns="http://www.w3.org/2000/svg">
  <rect width="32" height="32" rx="6" fill="#0284c7"/>
  <path d="M9 22V10h3.6c2 0 3.6 1.6 3.6 3.6 0 1.2-.6 2.2-1.4 2.9 1.1.5 1.8 1.6 1.8 2.9 0 1.8-1.4 3.2-3.2 3.2H9zm2.4-11.2v3.2h1.2c.6 0 1.2-.5 1.2-1.2s-.5-1.2-1.2-1.2h-1.2zm0 4.8v4h1.6c.9 0 1.6-.7 1.6-1.6s-.7-1.6-1.6-1.6h-1.6z" fill="white"/>
  <circle cx="22" cy="13" r="2.4" fill="white" opacity="0.8"/>
  <circle cx="22" cy="19" r="1.6" fill="white" opacity="0.6"/>
</svg>