<?xml version="1.0" encoding="UTF-8"?>
<svg version="1.1" xmlns="http://www.w3.org/2000/svg" width="32" height="27">
<path d="M0 0 C2.30664062 -0.37231445 2.30664062 -0.37231445 5.15625 -0.36328125 C6.17847656 -0.36263672 7.20070313 -0.36199219 8.25390625 -0.36132812 C9.32511719 -0.34521484 10.39632813 -0.32910156 11.5 -0.3125 C13.10681641 -0.31733398 13.10681641 -0.31733398 14.74609375 -0.32226562 C22.73312996 -0.26687004 22.73312996 -0.26687004 25 2 C25.25878906 4.30664062 25.25878906 4.30664062 25.265625 7.15625 C25.26949219 8.68958984 25.26949219 8.68958984 25.2734375 10.25390625 C25.26570313 11.32511719 25.25796875 12.39632813 25.25 13.5 C25.25773437 14.57121094 25.26546875 15.64242188 25.2734375 16.74609375 C25.27085938 17.76832031 25.26828125 18.79054688 25.265625 19.84375 C25.26336914 20.78412109 25.26111328 21.72449219 25.25878906 22.69335938 C25 25 25 25 23 27 C19.18545714 27.45420837 15.33847486 27.32404776 11.5 27.3125 C9.89318359 27.33666992 9.89318359 27.33666992 8.25390625 27.36132812 C7.23167969 27.36197266 6.20945312 27.36261719 5.15625 27.36328125 C4.21587891 27.36626221 3.27550781 27.36924316 2.30664062 27.37231445 C1.16485352 27.1880188 1.16485352 27.1880188 0 27 C-2.13876592 23.79185112 -2.25576428 22.9122927 -2.265625 19.21875 C-2.26820312 18.29449219 -2.27078125 17.37023437 -2.2734375 16.41796875 C-2.26570312 15.45503906 -2.25796875 14.49210938 -2.25 13.5 C-2.25773438 12.53707031 -2.26546875 11.57414063 -2.2734375 10.58203125 C-2.27085938 9.65777344 -2.26828125 8.73351562 -2.265625 7.78125 C-2.26224121 6.5137793 -2.26224121 6.5137793 -2.25878906 5.22070312 C-2 3 -2 3 0 0 Z M1 3 C0.979375 6.444375 0.95875 9.88875 0.9375 13.4375 C0.928396 14.52474365 0.91929199 15.6119873 0.90991211 16.73217773 C0.90741455 17.58239502 0.90491699 18.4326123 0.90234375 19.30859375 C0.89710693 20.18314209 0.89187012 21.05769043 0.88647461 21.95874023 C0.77215191 23.99440206 0.77215191 23.99440206 2 25 C3.40348735 25.09860131 4.81180477 25.13078937 6.21875 25.1328125 C7.06824219 25.13410156 7.91773438 25.13539062 8.79296875 25.13671875 C9.68628906 25.13285156 10.57960938 25.12898438 11.5 25.125 C12.83998047 25.13080078 12.83998047 25.13080078 14.20703125 25.13671875 C15.48126953 25.13478516 15.48126953 25.13478516 16.78125 25.1328125 C17.56564453 25.13168457 18.35003906 25.13055664 19.15820312 25.12939453 C21.01752988 25.20107442 21.01752988 25.20107442 22 24 C22.08685603 22.43827255 22.10702219 20.87270656 22.09765625 19.30859375 C22.09515869 18.45837646 22.09266113 17.60815918 22.09008789 16.73217773 C22.08098389 15.64493408 22.07187988 14.55769043 22.0625 13.4375 C22.0315625 8.2709375 22.0315625 8.2709375 22 3 C15.07 3 8.14 3 1 3 Z " fill="#0C2C46" transform="translate(4,0)"/>
<path d="M0 0 C2.76785043 0.05729627 4.63213602 0.22974489 7.25 1.1875 C9.28105353 4.10162028 8.94783541 6.52410203 8.73046875 9.99609375 C8.5832765 12.57255817 8.5832765 12.57255817 9.6875 16.25 C5.0675 16.25 0.4475 16.25 -4.3125 16.25 C-4.6425 15.59 -4.9725 14.93 -5.3125 14.25 C-4.9825 13.26 -4.6525 12.27 -4.3125 11.25 C-4.6425 10.92 -4.9725 10.59 -5.3125 10.25 C-5.4104057 8.75261876 -5.44224864 7.25057108 -5.4375 5.75 C-5.44007812 4.9353125 -5.44265625 4.120625 -5.4453125 3.28125 C-5.20146069 -0.44824823 -3.29253825 0.06466524 0 0 Z M0.6875 5.25 C0.6875 6.57 0.6875 7.89 0.6875 9.25 C1.3475 9.25 2.0075 9.25 2.6875 9.25 C2.6875 7.93 2.6875 6.61 2.6875 5.25 C2.0275 5.25 1.3675 5.25 0.6875 5.25 Z " fill="#F5F5F6" transform="translate(14.3125,5.75)"/>
<path d="M0 0 C6.93 0.495 6.93 0.495 14 1 C14 1.99 14 2.98 14 4 C9.38 4 4.76 4 0 4 C-0.33 3.34 -0.66 2.68 -1 2 C-0.67 1.34 -0.34 0.68 0 0 Z " fill="#0C2B45" transform="translate(10,18)"/>
<path d="M0 0 C0.99 0.33 1.98 0.66 3 1 C3 3.97 3 6.94 3 10 C2.01 9.67 1.02 9.34 0 9 C0 6.03 0 3.06 0 0 Z " fill="#0B2B43" transform="translate(20,8)"/>
<path d="M0 0 C3 2 3 2 3.51171875 3.9453125 C3.67447917 5.96354167 3.83723958 7.98177083 4 10 C2.68 9.67 1.36 9.34 0 9 C0 6.03 0 3.06 0 0 Z " fill="#102E46" transform="translate(9,7)"/>
</svg>
