<svg version="1.1" xmlns="http://www.w3.org/2000/svg" width="546" height="457">
<path d="M0 0 C1.16899367 -0.00445784 2.33798735 -0.00891569 3.54240507 -0.01350862 C5.47805707 -0.01323207 5.47805707 -0.01323207 7.45281315 -0.01294994 C8.83278398 -0.01624876 10.21275384 -0.01997437 11.59272248 -0.02409142 C15.39370732 -0.034118 19.19467638 -0.03782929 22.99567258 -0.04048073 C27.09200899 -0.04438198 31.18833287 -0.05396063 35.28466129 -0.0626936 C45.18344235 -0.08246586 55.08222443 -0.09252641 64.9810203 -0.10142139 C69.64316871 -0.10580413 74.30531598 -0.11117108 78.96746349 -0.11641026 C94.46779583 -0.13342534 109.96812747 -0.14791835 125.46846771 -0.155159 C129.49190045 -0.15706889 133.51533319 -0.15898922 137.53876591 -0.16094494 C139.03876941 -0.16167055 139.03876941 -0.16167055 140.56907601 -0.16241082 C156.7594627 -0.17070666 172.9497754 -0.1960348 189.1401298 -0.22852562 C205.76502664 -0.26161615 222.38988592 -0.27960967 239.01481587 -0.28280324 C248.34793881 -0.28496678 257.68095394 -0.2936923 267.01404476 -0.31926441 C274.96490327 -0.34099887 282.9156278 -0.34900844 290.86651265 -0.33929763 C294.92068335 -0.33476051 298.97457776 -0.33660455 303.02871037 -0.35605907 C306.74687533 -0.37374656 310.4645636 -0.37264836 314.18273402 -0.35716178 C316.15110559 -0.35368019 318.11948248 -0.36977043 320.08778375 -0.38676625 C335.42403671 -0.27640753 347.96458195 5.249696 359.06147099 15.69281483 C368.99683041 25.99065834 374.53126173 38.91321201 374.5483675 53.2582159 C374.55220865 54.47150007 374.55604979 55.68478424 374.56000733 56.9348346 C374.5592272 58.27270998 374.55834843 59.61058532 374.55738163 60.94846058 C374.55996695 62.37639314 374.56298058 63.80432498 374.56638503 65.23225582 C374.57443871 69.15188211 374.57624369 73.07149008 374.5769825 76.99112368 C374.57883591 81.22033108 374.5863847 85.44952904 374.59311771 89.67873096 C374.60669011 98.92475298 374.61272409 108.17077066 374.61712837 117.41680098 C374.61989272 123.1923278 374.62413044 128.96785295 374.62863255 134.74337864 C374.64082394 150.740521 374.65112341 166.73766202 374.65450764 182.73480892 C374.6547272 183.75834056 374.65494677 184.78187219 374.65517299 185.83641993 C374.65539127 186.86237277 374.65560954 187.88832561 374.65583444 188.94536793 C374.6562779 191.0242695 374.65672446 193.10317107 374.65717411 195.18207264 C374.65739554 196.21327523 374.65761697 197.24447782 374.65784511 198.30692898 C374.66179203 215.01119854 374.67924339 231.71542445 374.70253363 248.41967715 C374.72626351 265.57803508 374.73871024 282.73637111 374.73987556 299.89474571 C374.74079141 309.52514357 374.74652118 319.15548456 374.76469517 328.78586674 C374.78011825 336.98733249 374.78520361 345.18872378 374.77695706 353.39020129 C374.77305834 357.57193597 374.77394201 361.75352082 374.78801441 365.93523693 C374.80080009 369.76978903 374.79951522 373.60407942 374.7874237 377.4386314 C374.78455746 379.46948051 374.796367 381.50033433 374.80884576 383.53114712 C374.7206306 399.98226678 370.16184305 412.85885193 358.76068974 424.84906483 C344.15217467 439.09236702 327.56341804 441.46264025 307.7550745 441.38818836 C306.45442082 441.39130834 305.15376715 441.39442832 303.81369972 441.39764285 C300.24662265 441.40590353 296.67965416 441.40190589 293.11257696 441.39567041 C289.24884472 441.39111073 285.38513005 441.39814697 281.52140141 441.40363026 C273.96936495 441.41248865 266.41736843 441.41061816 258.86533046 441.40480497 C252.72352348 441.40027444 246.58172764 441.39968158 240.43991947 441.40185261 C239.56329358 441.40215907 238.68666768 441.40246554 237.78347737 441.40278129 C236.00221308 441.40342079 234.22094879 441.40406922 232.43968451 441.40472648 C215.76605668 441.41041936 199.09245091 441.40388826 182.4188267 441.39312574 C168.13530907 441.38419118 153.85182396 441.38574352 139.56830692 441.39496326 C122.95129042 441.40568433 106.3342932 441.40987013 89.71727371 441.40373874 C87.94283581 441.40310169 86.16839791 441.40247295 84.39396 441.40185261 C83.52107273 441.40154406 82.64818546 441.40123551 81.74884707 441.4009176 C75.61974342 441.39919617 69.49065208 441.40209383 63.36155033 441.40681171 C55.88461153 441.41244099 48.40771469 441.41086126 40.93078065 441.40025023 C37.12142426 441.39502095 33.31213763 441.39288953 29.50278187 441.39954853 C25.36139642 441.40667805 21.22018466 441.39812262 17.07880497 441.38818836 C15.89181287 441.39264981 14.70482077 441.39711125 13.48185921 441.40170789 C2.45835851 441.3506919 -8.97471546 440.93899848 -18.83306026 435.57172108 C-19.50071407 435.22093494 -20.16836788 434.87014881 -20.85625362 434.5087328 C-33.7093007 427.47707668 -43.42947445 416.27579155 -47.58306026 402.13422108 C-49.41320167 392.66635016 -49.87251536 383.33917175 -49.84375668 373.71980762 C-49.84678582 372.32423066 -49.85067908 370.92865535 -49.85534924 369.5330829 C-49.86553953 365.7399118 -49.86347063 361.94683616 -49.85916865 358.15365756 C-49.85668499 354.04654709 -49.86573571 349.93945865 -49.87320614 345.83235645 C-49.88590921 337.80273007 -49.88775239 329.77313719 -49.88540588 321.74350245 C-49.88361788 315.21316426 -49.88538264 308.68283618 -49.88963032 302.1524992 C-49.89022551 301.2206548 -49.8908207 300.28881041 -49.89143392 299.3287283 C-49.89264575 297.43528974 -49.89385989 295.54185119 -49.8950763 293.64841264 C-49.90593459 275.92082353 -49.90379727 258.19325348 -49.89769145 240.46566331 C-49.89252196 224.27154752 -49.90378166 208.07749188 -49.92278967 191.88338799 C-49.94219127 175.22535386 -49.95042012 158.56734815 -49.94666642 141.90930265 C-49.94475814 132.56900834 -49.94720563 123.22876524 -49.96138096 113.88848019 C-49.97332525 105.93834879 -49.97466546 97.98830014 -49.96259079 90.03816754 C-49.95672389 85.98765021 -49.95554166 81.93728398 -49.96759319 77.88677692 C-49.97852576 74.1689548 -49.97526231 70.45140861 -49.96133151 66.733599 C-49.95747359 64.77295503 -49.96817094 62.81229844 -49.97962838 60.85168415 C-49.87499837 43.44922155 -46.08824579 28.05128295 -33.73149776 15.12640858 C-24.74149415 6.79022341 -12.48760618 0.02204737 0 0 Z M-20.58306026 31.13422108 C-21.32556026 31.89734608 -22.06806026 32.66047108 -22.83306026 33.44672108 C-28.49814626 42.14667457 -29.16007303 50.27658018 -29.09099483 60.48090076 C-29.09561069 61.91784133 -29.10196818 63.35477716 -29.10990381 64.79170322 C-29.12652654 68.71768136 -29.11838322 72.64326812 -29.10595894 76.56924725 C-29.09688168 80.81200083 -29.11089141 85.0546887 -29.12187862 89.29742908 C-29.13963994 97.6000201 -29.13583452 105.90246624 -29.12422806 114.20506287 C-29.11518461 120.95436953 -29.11397368 127.70363567 -29.11832333 134.45294666 C-29.11893626 135.41453025 -29.11954919 136.37611383 -29.1201807 137.36683631 C-29.12145963 139.32043967 -29.12275649 141.27404302 -29.12407106 143.22764635 C-29.13546987 161.53499329 -29.12237413 179.84226004 -29.1008696 198.14959383 C-29.08299925 213.84893681 -29.08610356 229.54816148 -29.10454464 245.24750233 C-29.1259637 263.49054505 -29.1343713 281.73351754 -29.12209558 299.97657108 C-29.12082142 301.92287921 -29.11956394 303.86918734 -29.11832333 305.81549549 C-29.11770622 306.77304887 -29.11708912 307.73060224 -29.11645332 308.71717238 C-29.11300353 315.45626277 -29.11882076 322.1953085 -29.12824154 328.93439198 C-29.13947441 337.15012695 -29.13639441 345.3657091 -29.11511856 353.58142662 C-29.10462546 357.77107177 -29.10045649 361.96046237 -29.11371517 366.15010548 C-29.12568119 369.98941824 -29.11900787 373.82824179 -29.09780496 377.66751051 C-29.09125804 379.70560265 -29.10423726 381.74372905 -29.11803389 383.78178501 C-29.02614814 394.58121407 -26.80626392 402.56189951 -19.29399776 410.45453358 C-10.34192878 419.24309445 -1.15039172 420.72959705 11.07354069 420.64215565 C12.4355225 420.64677227 13.79749932 420.65313028 15.15946585 420.66106462 C18.87829243 420.67767705 22.59670548 420.66954884 26.31553304 420.65711975 C30.33540118 420.6480381 34.35520014 420.66205443 38.37505436 420.67303944 C46.24083053 420.69079661 54.10645376 420.68699706 61.97223585 420.67538887 C68.36732019 420.66634313 74.76236177 420.66513548 81.15745068 420.66948414 C82.06878903 420.67009707 82.98012739 420.67071 83.91908206 420.67134151 C85.77065369 420.67262046 87.62222531 420.67391731 89.47379691 420.67523187 C106.82357472 420.68662963 124.17326791 420.67353693 141.52303184 420.65203041 C156.39713402 420.63416317 171.2711113 420.63726201 186.14521122 420.65570545 C203.43275986 420.67713157 220.72023437 420.68552791 238.00779444 420.6732564 C239.85273396 420.67198225 241.69767349 420.67072477 243.54261303 420.66948414 C244.45027171 420.66886704 245.35793039 420.66824993 246.29309387 420.66761413 C252.67704981 420.66416623 259.06095856 420.66997755 265.44490719 420.67940235 C273.22986055 420.69064321 281.01465267 420.68753865 288.79958766 420.66627938 C292.76860735 420.65579649 296.73735862 420.65159962 300.70637608 420.66487598 C304.34528811 420.67686365 307.98368487 420.67013371 311.62255067 420.64896578 C313.55054733 420.6424361 315.47858022 420.65537874 317.40653843 420.6691947 C328.31214177 420.57157124 337.39901873 418.20295353 345.40522099 410.55609608 C351.27479635 403.48981117 354.53738442 395.43286553 354.5483675 386.31320477 C354.55220865 385.11660288 354.55604979 383.92000099 354.56000733 382.68713844 C354.55870761 380.71295438 354.55870761 380.71295438 354.55738163 378.69888783 C354.55996543 377.28775518 354.56297863 375.87662327 354.56638503 374.46549237 C354.57445672 370.58309241 354.5762447 366.70071094 354.5769825 362.81830359 C354.57883279 358.63272607 354.58638007 354.44715816 354.59311771 350.26158619 C354.60670336 341.10648623 354.61272628 331.95139065 354.61712837 322.79628229 C354.61989073 317.07941024 354.62412811 311.36253989 354.62863255 305.64566898 C354.64082614 289.81673953 354.65112487 273.98781143 354.65450764 258.15887737 C354.6547272 257.14564282 354.65494677 256.13240826 354.65517299 255.08846963 C354.65539127 254.07280947 354.65560954 253.0571493 354.65583444 252.01071155 C354.6562779 249.95259754 354.65672447 247.89448353 354.65717411 245.83636951 C354.65739554 244.81547376 354.65761697 243.794578 354.65784511 242.74274601 C354.66179207 226.20512765 354.6792426 209.66755339 354.70253363 193.12995206 C354.72625425 176.15020905 354.73870983 159.17048815 354.73987556 142.19072831 C354.74079198 132.65761516 354.74653607 123.12455945 354.76469517 113.59146214 C354.78010582 105.47260154 354.78521097 97.35381612 354.77695706 89.23494367 C354.77305381 85.09397549 354.77396421 80.95315864 354.78801441 76.81220913 C354.80077297 73.01715652 354.7995388 69.22236867 354.7874237 65.42731632 C354.78454849 63.41278833 354.79638772 61.39825567 354.80884576 59.38376415 C354.7477542 48.1455409 352.78964486 38.86417419 345.41693974 30.13422108 C336.28353004 21.14101723 325.03545786 19.53739977 312.716012 19.62628651 C311.3614167 19.62166834 310.00682643 19.61530931 308.65224648 19.60737753 C304.95848118 19.59078645 301.26513295 19.59888341 297.57136679 19.6113224 C293.57673796 19.62041283 289.58217836 19.60638347 285.58756351 19.59540272 C277.77339313 19.57765532 269.9593768 19.58144057 262.14520049 19.59305328 C255.7920927 19.60210225 249.43902796 19.60330528 243.08591557 19.59895802 C242.18026342 19.59834508 241.27461127 19.59773215 240.34151512 19.59710065 C238.50145903 19.59582169 236.66140295 19.59452484 234.82134688 19.59321028 C217.58411117 19.58181556 200.34696068 19.59490079 183.10973895 19.61641175 C168.33286478 19.63428172 153.55611632 19.6311773 138.77924442 19.6127367 C121.60192484 19.5913104 104.42467987 19.58291409 87.24734879 19.59518576 C85.4142205 19.5964599 83.58109221 19.59771738 81.74796391 19.59895802 C80.84612844 19.59957512 79.94429297 19.60019222 79.01512915 19.60082802 C72.67273954 19.60427564 66.33039743 19.59846527 59.98801517 19.5890398 C52.25432258 19.57779888 44.5207923 19.58090377 36.7871182 19.60216278 C32.84441942 19.61264512 28.90199085 19.61684345 24.95929432 19.60356617 C21.34447646 19.59157752 17.73017725 19.59830999 14.11540592 19.61947638 C12.20038078 19.6260052 10.28531914 19.61306438 8.37033272 19.59924746 C-3.46069553 19.70584878 -12.30764526 22.52464442 -20.58306026 31.13422108 Z " fill="#0C2C46" transform="translate(102.5830602645874,8.865778923034668)"/>
<path d="M0 0 C1.0560997 -0.00671722 2.1121994 -0.01343445 3.20030212 -0.02035522 C6.68607309 -0.03932678 10.17165134 -0.04325934 13.6574707 -0.04541016 C16.08877135 -0.05183972 18.52007121 -0.05856821 20.95137024 -0.06558228 C26.04800204 -0.07755372 31.14456607 -0.08126333 36.24121094 -0.08007812 C42.75316192 -0.07987519 49.26467523 -0.10715183 55.77652264 -0.14162254 C60.79960603 -0.16392793 65.82258482 -0.1679145 70.84571266 -0.16685867 C73.24534421 -0.16921012 75.64497885 -0.17800774 78.04456139 -0.19352341 C81.41152381 -0.21325194 84.77755183 -0.20731724 88.14453125 -0.1953125 C89.61394165 -0.21217102 89.61394165 -0.21217102 91.11303711 -0.22937012 C101.04211691 -0.13999869 109.7368017 2.82656907 117.38793945 9.24365234 C123.43611397 15.40949563 125.78552998 22.00065653 127.39575195 30.29052734 C128.04012207 30.33016602 128.68449219 30.36980469 129.34838867 30.41064453 C132.32389627 30.60350644 135.29703286 30.82187153 138.27075195 31.04052734 C139.28395508 31.10240234 140.2971582 31.16427734 141.34106445 31.22802734 C152.23077116 32.06569709 160.93845108 35.10244421 168.39575195 43.29052734 C174.38525644 51.16985004 175.69502233 58.35086927 175.6862793 68.07836914 C175.69299652 69.15397598 175.69971375 70.22958282 175.70663452 71.33778381 C175.72560853 74.88848512 175.72953875 78.43899726 175.73168945 81.98974609 C175.73811882 84.46588722 175.74484729 86.94202758 175.75186157 89.41816711 C175.7638336 94.60895548 175.76754257 99.79967731 175.76635742 104.99047852 C175.76615448 111.6234945 175.7934319 118.25608086 175.82790184 124.88899517 C175.85020456 130.0047245 175.85419388 135.12035108 175.85313797 140.23612404 C175.85548979 142.6804127 175.86428952 145.12470437 175.8798027 147.56894493 C175.89952585 150.998168 175.89359857 154.4264732 175.8815918 157.85571289 C175.89283081 158.8540213 175.90406982 159.85232971 175.91564941 160.88088989 C175.85503331 167.73687739 174.82643031 174.24671194 171.39575195 180.29052734 C169.25702477 181.5974226 169.25702477 181.5974226 167.39575195 182.29052734 C165.2908719 180.35379748 163.18682499 178.41617593 161.08325195 176.47802734 C160.19089844 175.6572168 160.19089844 175.6572168 159.28051758 174.81982422 C158.70366211 174.28808594 158.12680664 173.75634766 157.5324707 173.20849609 C157.00355225 172.72147217 156.47463379 172.23444824 155.9296875 171.73266602 C155.42348877 171.25676025 154.91729004 170.78085449 154.39575195 170.29052734 C153.87613892 169.85396254 153.35652588 169.41739773 152.82116699 168.96760368 C151.0116521 166.83861351 151.0308567 165.78105636 151.05517578 163.01516724 C151.05538727 162.14319702 151.05559875 161.27122681 151.05581665 160.37283325 C151.07906509 158.94207962 151.07906509 158.94207962 151.1027832 157.48242188 C151.107164 156.47564392 151.1115448 155.46886597 151.11605835 154.43157959 C151.12748474 152.24293749 151.14584342 150.05432326 151.17025757 147.86578751 C151.20847856 144.40280877 151.22807695 140.94017387 151.24267578 137.47702026 C151.28283897 128.87431148 151.35539799 120.27192871 151.42687988 111.66943359 C151.48603394 104.40465014 151.53297604 97.13998828 151.56356812 89.8750267 C151.58303169 86.46196504 151.6205587 83.04940191 151.65869141 79.63650513 C151.66958978 77.54348181 151.67964488 75.45045388 151.6887207 73.35742188 C151.71196915 71.93274094 151.71196915 71.93274094 151.73568726 70.47927856 C151.73686028 65.6115528 151.64893982 62.2050674 148.39575195 58.29052734 C146.10266232 57.14398253 144.59665539 57.09323617 142.04418945 56.97412109 C140.76801758 56.9112793 140.76801758 56.9112793 139.46606445 56.84716797 C138.57661133 56.80785156 137.6871582 56.76853516 136.77075195 56.72802734 C135.87356445 56.68484375 134.97637695 56.64166016 134.05200195 56.59716797 C131.83340913 56.49095874 129.61470316 56.3889154 127.39575195 56.29052734 C127.40019318 57.22045502 127.4046344 58.15038269 127.40921021 59.10848999 C127.44941407 67.90561811 127.47980073 76.70271502 127.4993763 85.49991417 C127.50977885 90.0217928 127.52387304 94.54359502 127.54663086 99.06542969 C127.56848578 103.43560148 127.58034707 107.80570013 127.58550644 112.17592239 C127.58917961 113.83673884 127.59635193 115.49755164 127.60721207 117.15833664 C127.69292039 130.81819526 127.56530486 144.04575462 118.00512695 154.84521484 C107.98234596 163.84625603 97.79509782 164.5868056 84.9309082 164.48583984 C83.52843936 164.48210442 82.12596788 164.47925995 80.72349548 164.4772644 C77.05248669 164.46966955 73.381639 164.45005733 69.71069336 164.42785645 C65.95664651 164.40730806 62.20257334 164.39824355 58.44848633 164.38818359 C51.09750184 164.366807 43.74664957 164.33272192 36.39575195 164.29052734 C36.96192372 167.57432359 37.79217098 169.19502496 40.39575195 171.29052734 C42.39036909 171.72420938 42.39036909 171.72420938 44.61296082 171.63542175 C45.4721814 171.63639862 46.33140198 171.63737549 47.21665955 171.63838196 C48.15643143 171.62437851 49.09620331 171.61037506 50.06445312 171.59594727 C51.05665863 171.59328857 52.04886414 171.59062988 53.07113647 171.58789062 C55.22865328 171.58092817 57.38615655 171.56748792 59.54360008 171.54839134 C62.96133233 171.52081364 66.37838351 171.5158537 69.79621887 171.51789856 C79.51461346 171.5214346 89.23255315 171.49845654 98.95068359 171.42456055 C104.893692 171.38098349 110.83568311 171.3763241 116.77880287 171.39614296 C119.04139395 171.39604551 121.30403523 171.3812001 123.56642723 171.35118675 C126.73879836 171.31023447 129.9075808 171.31879202 133.08007812 171.33813477 C134.00972885 171.31401016 134.93937958 171.28988556 135.89720154 171.26502991 C141.34203909 171.35902333 143.97262284 172.31506871 147.86860657 176.21430969 C149.04897995 177.56900412 150.22527325 178.92727465 151.39575195 180.29052734 C153.78317487 182.17604885 156.21283754 183.9132288 158.70825195 185.64990234 C159.26512695 186.19130859 159.82200195 186.73271484 160.39575195 187.29052734 C160.39575195 188.61052734 160.39575195 189.93052734 160.39575195 191.29052734 C159.00297178 191.94291893 157.60635984 192.58713287 156.20825195 193.22802734 C155.43094727 193.58767578 154.65364258 193.94732422 153.8527832 194.31787109 C148.07397077 196.60550909 142.38329722 196.44450702 136.25634766 196.45166016 C135.23780197 196.45662506 134.21925629 196.46158997 133.16984558 196.46670532 C129.80373454 196.48129696 126.43767066 196.48812449 123.0715332 196.49365234 C120.72608947 196.49940689 118.38064574 196.50516459 116.03520203 196.51092529 C111.11672751 196.52142719 106.1982693 196.52727496 101.27978516 196.53076172 C94.99311379 196.5362403 88.70665968 196.56025839 82.42005634 196.58873367 C77.57373943 196.60740603 72.72747433 196.61256814 67.8811245 196.6140976 C65.56440228 196.61711498 63.24768078 196.62511248 60.93099403 196.63828278 C57.68120684 196.65543683 54.43194365 196.65343989 51.18212891 196.64697266 C50.23475861 196.65618744 49.28738831 196.66540222 48.31130981 196.67489624 C38.09064935 196.61154019 29.26368381 193.93522987 21.39575195 187.29052734 C15.79761821 181.60511757 11.39575195 173.39092125 11.39575195 165.29052734 C10.85950195 165.31373047 10.32325195 165.33693359 9.77075195 165.36083984 C-2.96966745 165.65420476 -16.99822761 165.23400244 -26.84643555 156.24365234 C-35.91957868 146.60551494 -37.75024014 137.95753952 -37.76538086 125.03759766 C-37.77034576 124.01890594 -37.77531067 123.00021423 -37.78042603 121.95065308 C-37.79499711 118.58997922 -37.80184126 115.22935257 -37.80737305 111.86865234 C-37.81312867 109.52463785 -37.81888635 107.18062337 -37.824646 104.83660889 C-37.83514162 99.92411073 -37.8409937 95.01162888 -37.84448242 90.09912109 C-37.84996396 83.8203255 -37.87399105 77.5417471 -37.90245438 71.26301956 C-37.92112522 66.42099386 -37.92628873 61.57902002 -37.9278183 56.73696136 C-37.93083532 54.42303022 -37.93883153 52.10909978 -37.95200348 49.79520416 C-37.96915671 46.55031542 -37.96716095 43.30595148 -37.96069336 40.06103516 C-37.96990814 39.1152359 -37.97912292 38.16943665 -37.98861694 37.19497681 C-37.93750861 28.96339269 -36.40267429 21.14542198 -31.60424805 14.29052734 C-26.79038946 14.72971659 -24.80832733 16.65469095 -21.54174805 20.10302734 C-20.70514648 20.97572266 -19.86854492 21.84841797 -19.0065918 22.74755859 C-17.81743164 24.00632813 -17.81743164 24.00632813 -16.60424805 25.29052734 C-15.90308365 25.79834244 -15.20191925 26.30615753 -14.47950745 26.82936096 C-11.53625789 30.69220087 -12.10282767 34.48807603 -12.19775391 39.2121582 C-12.20410606 40.72254417 -12.20410606 40.72254417 -12.21058655 42.26344299 C-12.22245852 44.44936125 -12.24364723 46.63524414 -12.27302361 48.82099724 C-12.31942089 52.27990527 -12.34172181 55.7382299 -12.35780334 59.19740295 C-12.39671204 66.54119918 -12.46859897 73.88450617 -12.54174805 81.22802734 C-12.62207722 89.73362392 -12.68899232 98.23910253 -12.73312569 106.74496651 C-12.75632477 110.1536361 -12.79839197 113.56173215 -12.84153748 116.97019958 C-12.85563147 119.05996165 -12.86894362 121.14972918 -12.88134766 123.23950195 C-12.89841766 124.1877182 -12.91548767 125.13593445 -12.93307495 126.11288452 C-12.94221866 130.94879581 -12.92413509 134.46455728 -9.60424805 138.29052734 C-5.94934721 141.19704372 -1.29312009 140.51122442 3.14575195 140.41552734 C3.93852539 140.40650391 4.73129883 140.39748047 5.5480957 140.38818359 C7.49744477 140.36469746 9.4466377 140.32882872 11.39575195 140.29052734 C11.38909012 139.32301544 11.38242828 138.35550354 11.37556458 137.3586731 C11.31455744 128.20838285 11.26968561 119.05813427 11.24031544 109.90768623 C11.22470796 105.20415853 11.20356025 100.50079597 11.16943359 95.79736328 C11.13666381 91.25211861 11.11886201 86.70703207 11.11112022 82.16167831 C11.10560818 80.43386219 11.09484504 78.706054 11.07856178 76.97830582 C10.96051954 63.92561679 11.58511665 52.63678536 20.39575195 42.29052734 C30.24406811 32.73895894 39.9778524 31.84233012 53.2746582 31.99755859 C54.69668629 32.00316498 56.11872023 32.00743014 57.54075623 32.01042175 C61.25457204 32.02178866 64.96802689 32.05118363 68.68170166 32.08453369 C72.48281982 32.11541224 76.28399722 32.1289648 80.08520508 32.14404297 C87.52221727 32.17606281 94.95893373 32.22715803 102.39575195 32.29052734 C101.32174088 29.37535443 100.6176502 27.51242559 98.39575195 25.29052734 C95.61486937 24.366775 93.08216145 24.16879025 90.16545105 24.17941284 C89.32865311 24.17974014 88.49185516 24.18006744 87.62969971 24.18040466 C86.72000427 24.18564651 85.81030884 24.19088837 84.87304688 24.19628906 C82.87387609 24.19907521 80.87470513 24.20174515 78.87553406 24.20431519 C77.28740685 24.20889048 77.28740685 24.20889048 75.66719627 24.2135582 C70.05780061 24.22490431 64.44848587 24.2044026 58.83911133 24.18896484 C51.70216059 24.17066834 44.56564286 24.16200573 37.42871094 24.19091797 C31.65958423 24.21345456 25.89139828 24.20202942 20.12233925 24.16791153 C17.92596017 24.16114261 15.72950563 24.1668213 13.53319359 24.1852684 C10.45662165 24.20944572 7.3831066 24.19021619 4.30664062 24.16113281 C3.40301788 24.17852005 2.49939514 24.19590729 1.56838989 24.21382141 C-3.41728592 24.11595707 -5.98647601 23.44413222 -9.57377625 19.86575317 C-10.59370075 18.6823595 -11.60506609 17.49148612 -12.60424805 16.29052734 C-14.70672177 14.47226424 -16.84186029 12.7141576 -19.00268555 10.96630859 C-20.80083095 9.0848345 -21.21672157 7.8315938 -21.60424805 5.29052734 C-14.4245169 0.64481895 -8.34661374 -0.00764365 0 0 Z M79.10359573 54.52624226 C75.52001443 54.57094319 71.93654697 54.61020467 68.3527832 54.63696289 C64.88899392 54.66302365 61.42563957 54.70344051 57.96212006 54.75371361 C56.0030246 54.7784407 54.04376091 54.78841783 52.08453369 54.798172 C50.88689392 54.81796616 49.68925415 54.83776031 48.45532227 54.8581543 C46.87766083 54.87480888 46.87766083 54.87480888 45.26812744 54.89179993 C41.94660201 55.35287588 40.0804841 56.30593888 37.39575195 58.29052734 C34.92827575 61.99174166 35.12749241 64.78777794 35.16870117 69.06665039 C35.16840912 69.85712769 35.16811707 70.64760498 35.16781616 71.46203613 C35.16920981 74.07555101 35.18477258 76.688781 35.20043945 79.30224609 C35.20416946 81.11399683 35.20701649 82.92574958 35.20901489 84.73750305 C35.21665231 89.50673997 35.23630176 94.27585514 35.25842285 99.04504395 C35.27887892 103.9113602 35.2880161 108.77769612 35.2980957 113.64404297 C35.31954753 123.1929246 35.35368481 132.74171585 35.39575195 142.29052734 C43.52455054 142.16796863 51.65186799 142.01367 59.77923107 141.81909752 C63.55341697 141.72973416 67.32717358 141.65121801 71.10205078 141.59765625 C74.74689363 141.5455374 78.39008235 141.46471042 82.03389931 141.36415482 C83.42230932 141.33085006 84.81100539 141.30780063 86.19975853 141.29529953 C88.14860959 141.27598447 90.09693494 141.2164327 92.04492188 141.15527344 C93.15300705 141.13306732 94.26109222 141.11086121 95.40275574 141.08798218 C98.76978249 140.19087053 100.40299774 138.90119587 102.46773815 136.08966637 C104.10035031 132.92452353 104.04914308 129.73165075 103.96337891 126.265625 C103.96410904 125.4844632 103.96483917 124.70330139 103.96559143 123.89846802 C103.96212594 121.33311949 103.92331709 118.76961855 103.8840332 116.20458984 C103.87470131 114.41955558 103.86758697 112.63450846 103.8625946 110.84945679 C103.8435543 106.16380107 103.79447949 101.47892712 103.73907471 96.7935791 C103.6878179 92.00751316 103.66506686 87.22132022 103.63989258 82.43505859 C103.58635755 73.05320575 103.50108102 63.67193169 103.39575195 54.29052734 C95.29855499 54.29052734 87.20006782 54.42416945 79.10359573 54.52624226 Z " fill="#FCFCFC" transform="translate(203.604248046875,117.70947265625)"/>
<path d="M0 0 C4.81385859 0.43918925 6.79592072 2.36416361 10.0625 5.8125 C11.31740234 7.12154297 11.31740234 7.12154297 12.59765625 8.45703125 C13.78681641 9.71580078 13.78681641 9.71580078 15 11 C15.7011644 11.5084697 16.4023288 12.01693939 17.1247406 12.54081726 C20.06432687 16.39573985 19.50156903 20.17405751 19.40649414 24.88989258 C19.40014198 26.39545967 19.40014198 26.39545967 19.3936615 27.93144226 C19.38178875 30.11080833 19.36059897 32.29013893 19.33122444 34.46933937 C19.28480838 37.92039575 19.26252106 41.37086702 19.2464447 44.82218933 C19.20753478 52.15254809 19.13567986 59.48241706 19.0625 66.8125 C18.9821098 75.29651206 18.91518176 83.78040349 18.87112236 92.26468468 C18.84796951 95.66107811 18.80589594 99.05688968 18.76271057 102.45307922 C18.74861171 104.54268866 18.73529993 106.63230361 18.72290039 108.72192383 C18.70583038 109.66294952 18.68876038 110.60397522 18.6711731 111.57351685 C18.66062514 117.16960633 19.37202104 121.033583 22 126 C23.61780157 127.61780157 25.45635518 127.22272147 27.69140625 127.31640625 C28.63564453 127.35830078 29.57988281 127.40019531 30.55273438 127.44335938 C31.54595703 127.48267578 32.53917969 127.52199219 33.5625 127.5625 C35.05813477 127.62727539 35.05813477 127.62727539 36.58398438 127.69335938 C39.05581111 127.79980167 41.5278866 127.90043759 44 128 C44 134.6 44 141.2 44 148 C40.02064702 148.05430504 36.04204679 148.0938228 32.0625 148.125 C30.94552734 148.14175781 29.82855469 148.15851563 28.67773438 148.17578125 C18.29083489 148.23670148 10.77909709 147.81847514 3.08203125 140.41796875 C-4.81683305 131.24461603 -6.14746243 122.41233955 -6.16113281 110.74707031 C-6.16609772 109.7283786 -6.17106262 108.70968689 -6.17617798 107.66012573 C-6.19074906 104.29945187 -6.19759321 100.93882522 -6.203125 97.578125 C-6.20888062 95.23411051 -6.2146383 92.89009602 -6.22039795 90.54608154 C-6.23089357 85.63358339 -6.23674565 80.72110153 -6.24023438 75.80859375 C-6.24571591 69.52979816 -6.26974301 63.25121976 -6.29820633 56.97249222 C-6.31687717 52.13046652 -6.32204068 47.28849267 -6.32357025 42.44643402 C-6.32658727 40.13250288 -6.33458349 37.81857244 -6.34775543 35.50467682 C-6.36490866 32.25978808 -6.36291291 29.01542414 -6.35644531 25.77050781 C-6.3656601 24.82470856 -6.37487488 23.8789093 -6.3843689 22.90444946 C-6.33326056 14.67286534 -4.79842624 6.85489463 0 0 Z " fill="#052842" transform="translate(172,132)"/>
<path d="M0 0 C3.42375 -0.0825 6.8475 -0.165 10.375 -0.25 C11.96127197 -0.30462402 11.96127197 -0.30462402 13.57958984 -0.36035156 C24.73059921 -0.488643 32.85211316 3.58433243 41 11 C47.3756922 17.28012508 49.21173558 22.79680716 49.29327393 31.73199463 C49.29236755 32.74042419 49.29146118 33.74885376 49.29052734 34.7878418 C49.29724457 35.86344864 49.30396179 36.93905548 49.31088257 38.04725647 C49.32985658 41.59795778 49.3337868 45.14846992 49.3359375 48.69921875 C49.34236687 51.17535987 49.34909533 53.65150024 49.35610962 56.12763977 C49.36808165 61.31842814 49.37179061 66.50914997 49.37060547 71.69995117 C49.37040253 78.33296716 49.39767995 84.96555351 49.43214989 91.59846783 C49.4544526 96.71419715 49.45844193 101.82982374 49.45738602 106.94559669 C49.45973784 109.38988535 49.46853757 111.83417703 49.48405075 114.27841759 C49.5037739 117.70764065 49.49784662 121.13594586 49.48583984 124.56518555 C49.49707886 125.56349396 49.50831787 126.56180237 49.51989746 127.59036255 C49.45928135 134.44635004 48.43067836 140.9561846 45 147 C42.86127281 148.30689526 42.86127281 148.30689526 41 149 C38.89511995 147.06327014 36.79107304 145.12564859 34.6875 143.1875 C34.09259766 142.64029297 33.49769531 142.09308594 32.88476562 141.52929688 C32.30791016 140.99755859 31.73105469 140.46582031 31.13671875 139.91796875 C30.60780029 139.43094482 30.07888184 138.9439209 29.53393555 138.44213867 C29.02773682 137.96623291 28.52153809 137.49032715 28 137 C27.48024817 136.56315762 26.96049635 136.12631523 26.42499447 135.6762352 C24.61731907 133.54984861 24.63703006 132.50042953 24.66615295 129.73809814 C24.6678096 128.86901825 24.66946625 127.99993835 24.6711731 127.10452271 C24.6882431 126.15382904 24.70531311 125.20313538 24.72290039 124.22363281 C24.72888748 123.22006744 24.73487457 122.21650208 24.74104309 121.18252563 C24.75582146 119.00042632 24.77745392 116.81836528 24.80507088 114.63639069 C24.84792735 111.1812688 24.87130171 107.72651446 24.88926697 104.2711792 C24.94437689 94.44615252 25.03877739 84.62155202 25.13696289 74.796875 C25.19565648 68.78936974 25.23478201 62.78197654 25.26269341 56.77425385 C25.28486152 53.3733415 25.33035499 49.97323341 25.37623596 46.5725708 C25.38757496 44.47970205 25.39772401 42.3868264 25.40649414 40.29394531 C25.42558838 39.35134857 25.44468262 38.40875183 25.46435547 37.43759155 C25.45643017 31.43926966 24.52591456 27.90218434 21 23 C18.70691037 21.85345518 17.20090344 21.80270883 14.6484375 21.68359375 C13.88192871 21.64548584 13.11541992 21.60737793 12.32568359 21.56811523 C10.86509521 21.50346069 10.86509521 21.50346069 9.375 21.4375 C6.28125 21.293125 3.1875 21.14875 0 21 C0 14.07 0 7.14 0 0 Z " fill="#032741" transform="translate(330,151)"/>
<path d="M0 0 C0 2.31 0 4.62 0 7 C-1.03640625 6.91621094 -2.0728125 6.83242188 -3.140625 6.74609375 C-4.51039132 6.64289218 -5.88018447 6.54004626 -7.25 6.4375 C-7.93191406 6.38142578 -8.61382812 6.32535156 -9.31640625 6.26757812 C-12.7420581 6.01813746 -15.72701177 5.86120255 -19 7 C-19 8.65 -19 10.3 -19 12 C-18.20335937 12.03738281 -17.40671875 12.07476562 -16.5859375 12.11328125 C-5.50236967 12.80094787 -5.50236967 12.80094787 -1 16 C1.37219984 18.91133616 1.48544395 22.26887757 1.375 25.96875 C0.68657468 29.69772049 -1.24269618 31.53602637 -4 34 C-11.91188512 37.28417873 -19.05492632 36.27002105 -27 34 C-27 31.69 -27 29.38 -27 27 C-21.06 27 -15.12 27 -9 27 C-8.67 25.35 -8.34 23.7 -8 22 C-9.02480469 21.91363281 -10.04960937 21.82726562 -11.10546875 21.73828125 C-12.46626581 21.59750914 -13.82693708 21.45551731 -15.1875 21.3125 C-15.86103516 21.25900391 -16.53457031 21.20550781 -17.22851562 21.15039062 C-20.99013371 20.72835543 -22.94414781 20.04465189 -25.921875 17.6640625 C-28.71794985 14.07962068 -29.43210335 11.49740219 -29 7 C-27.22128543 3.07200532 -25.64769741 1.40481088 -22 -0.875 C-15.14944225 -3.37552756 -6.6079958 -2.93688702 0 0 Z " fill="#243F55" transform="translate(204,329)"/>
<path d="M0 0 C3.13397714 -0.51166974 5.88011162 -0.6586431 9 0 C12.80175282 3.05421715 15.31676867 6.97515301 18 11 C18.66 11 19.32 11 20 11 C21.22448914 9.19116233 22.40481108 7.35230228 23.5625 5.5 C27.24907457 0.21703718 27.24907457 0.21703718 30.52734375 -0.73046875 C32.77785675 -0.69136031 34.80832262 -0.5022594 37 0 C36.40336514 3.09893927 35.4698686 5.00292174 33.49609375 7.453125 C32.75649414 8.38125 32.75649414 8.38125 32.00195312 9.328125 C31.48568359 9.96234375 30.96941406 10.5965625 30.4375 11.25 C29.91736328 11.8996875 29.39722656 12.549375 28.86132812 13.21875 C27.580156 14.81727669 26.29085995 16.40928626 25 18 C26.28736119 20.74624542 27.70065969 23.05765276 29.6015625 25.41796875 C30.09140625 26.03220703 30.58125 26.64644531 31.0859375 27.27929688 C31.59382813 27.90900391 32.10171875 28.53871094 32.625 29.1875 C38 35.87265625 38 35.87265625 38 37 C34.4496993 37.73377822 31.52905665 37.91277122 28 37 C24.42604638 33.71907918 21.69991357 30.0172627 19 26 C18.46632813 26.7940625 17.93265625 27.588125 17.3828125 28.40625 C11.36964243 36.64574947 11.36964243 36.64574947 7.17578125 37.73046875 C4.69913891 37.6916056 2.42357574 37.50090605 0 37 C2.3974388 32.77063123 5.20240339 29.00723133 8.1875 25.1875 C8.65091797 24.59001953 9.11433594 23.99253906 9.59179688 23.37695312 C10.72543456 21.91607981 11.86238068 20.45777485 13 19 C9.19577518 13.88589557 5.31706463 8.84847424 1.3203125 3.8828125 C0 2 0 2 0 0 Z " fill="#1C3850" transform="translate(355,327)"/>
<path d="M0 0 C8.58 0 17.16 0 26 0 C26 2.31 26 4.62 26 7 C20.06 7 14.12 7 8 7 C8 9.64 8 12.28 8 15 C13.61 15 19.22 15 25 15 C25 17.31 25 19.62 25 22 C19.39 22 13.78 22 8 22 C8 24.64 8 27.28 8 30 C13.94 30 19.88 30 26 30 C26 32.31 26 34.62 26 37 C17.42 37 8.84 37 0 37 C0 24.79 0 12.58 0 0 Z " fill="#1F3B51" transform="translate(327,327)"/>
<path d="M0 0 C1.9453125 -0.29296875 1.9453125 -0.29296875 4.125 -0.1875 C5.40375 -0.125625 6.6825 -0.06375 8 0 C10.16685022 4.92431431 12.32104896 9.85389292 14.46362305 14.78881836 C15.19452862 16.46741664 15.92889082 18.14451417 16.66674805 19.82006836 C17.72572971 22.22645641 18.77223065 24.63793849 19.81640625 27.05078125 C20.14967422 27.80087967 20.4829422 28.55097809 20.8263092 29.32380676 C23.11387171 34.65838488 23.11387171 34.65838488 22 38 C19.36 37.67 16.72 37.34 14 37 C13.01 34.36 12.02 31.72 11 29 C7.04 28.67 3.08 28.34 -1 28 C0 23 0 23 2 20 C4.625 19.8125 4.625 19.8125 7 20 C6.01 17.36 5.02 14.72 4 12 C1.67872479 14.32127521 1.01148048 16.17015075 -0.1640625 19.2265625 C-0.56367188 20.2578125 -0.96328125 21.2890625 -1.375 22.3515625 C-1.7875 23.43179687 -2.2 24.51203125 -2.625 25.625 C-3.04523438 26.71296875 -3.46546875 27.8009375 -3.8984375 28.921875 C-4.93703873 31.61279637 -5.97067 34.30552154 -7 37 C-9.97 37 -12.94 37 -16 37 C-14.62170197 32.69403768 -13.02586191 28.5516354 -11.25 24.39453125 C-10.9912207 23.7886467 -10.73244141 23.18276215 -10.46582031 22.55851746 C-9.92242869 21.28825146 -9.37781566 20.01850732 -8.83203125 18.74926758 C-7.99856362 16.80915646 -7.17094909 14.86661887 -6.34375 12.92382812 C-5.81285044 11.68474562 -5.28161223 10.44580816 -4.75 9.20703125 C-4.27046875 8.0878833 -3.7909375 6.96873535 -3.296875 5.81567383 C-2 3 -2 3 0 0 Z " fill="#233E54" transform="translate(222,327)"/>
<path d="M0 0 C2.64 0 5.28 0 8 0 C18 18.85106383 18 18.85106383 18 25 C18.66 25 19.32 25 20 25 C20.14695312 24.44054687 20.29390625 23.88109375 20.4453125 23.3046875 C25.78571429 4.21428571 25.78571429 4.21428571 30 0 C32.67058851 -0.14115161 35.32432238 -0.04247107 38 0 C37.41411427 4.73201575 36.06588759 8.52758791 34.09375 12.859375 C33.80898804 13.48982727 33.52422607 14.12027954 33.23083496 14.76983643 C32.32716104 16.76630086 31.41372837 18.75812036 30.5 20.75 C29.88607735 22.10257364 29.27278979 23.45543573 28.66015625 24.80859375 C24.40581481 34.18837038 24.40581481 34.18837038 23 37 C20.03 37 17.06 37 14 37 C11.99695102 32.3774622 10.00341527 27.75098237 8.01855469 23.12060547 C7.34211479 21.54624511 6.66309646 19.97298997 5.98144531 18.40087891 C5.00164402 16.13990888 4.03120861 13.87511588 3.0625 11.609375 C2.75626709 10.90818542 2.45003418 10.20699585 2.13452148 9.48455811 C0.66912447 6.03198754 0 3.81526679 0 0 Z " fill="#1F3B52" transform="translate(245,327)"/>
<path d="M0 0 C1.52509489 3.05018978 1.12975944 6.22549613 1.11352539 9.57080078 C1.11367142 10.35137848 1.11381744 11.13195618 1.1139679 11.93618774 C1.11326986 14.52259069 1.10548257 17.10892209 1.09765625 19.6953125 C1.09579168 21.48607341 1.09436796 23.27683483 1.09336853 25.06759644 C1.08954641 29.78584191 1.07971871 34.5040567 1.06866455 39.22229004 C1.05844389 44.03490789 1.0538695 48.84753068 1.04882812 53.66015625 C1.03809619 63.10678433 1.0210234 72.55338962 1 82 C8.99827918 81.85423817 16.99537967 81.68217691 24.99232769 81.476758 C28.70593464 81.38218794 32.41929177 81.29660072 36.13354492 81.23168945 C39.71988068 81.16868048 43.30493102 81.08188372 46.89032936 80.97875023 C48.2564267 80.94360469 49.62277052 80.91695266 50.9892025 80.89904213 C59.35168211 81.17624822 59.35168211 81.17624822 66.37817383 77.44213867 C67.18097778 76.23328003 67.18097778 76.23328003 68 75 C67.45329966 78.8269024 65.97969074 80.58740137 63 83 C60.20318604 83.48101807 60.20318604 83.48101807 56.94628906 83.45410156 C55.72532532 83.45379944 54.50436157 83.45349731 53.24639893 83.45318604 C51.93274353 83.43254089 50.61908813 83.41189575 49.265625 83.390625 C47.90371532 83.38316087 46.54179488 83.37746874 45.17987061 83.37347412 C41.60229632 83.35823092 38.02537578 83.31896181 34.44805908 83.2746582 C30.79488976 83.23367632 27.14161438 83.21545697 23.48828125 83.1953125 C16.32518886 83.1524649 9.16276946 83.08212736 2 83 C2 89.6 2 96.2 2 103 C36.155 102.505 36.155 102.505 71 102 C66.49293558 105.00470961 63.13245027 105.1242649 57.76269531 105.11352539 C56.50169006 105.11344986 55.24068481 105.11337433 53.94146729 105.11329651 C52.57035279 105.10819028 51.19923869 105.1029743 49.828125 105.09765625 C48.42136689 105.09579028 47.01460812 105.09436722 45.60784912 105.09336853 C41.91219273 105.08955744 38.21657587 105.0797392 34.52093506 105.06866455 C30.74703506 105.05842014 26.97312865 105.05386442 23.19921875 105.04882812 C15.79946118 105.03811564 8.39973614 105.02105616 1 105 C1.56617177 108.28379625 2.39641902 109.90449762 5 112 C6.99461713 112.43368204 6.99461713 112.43368204 9.21720886 112.34489441 C10.07642944 112.34587128 10.93565002 112.34684814 11.82090759 112.34785461 C12.76067947 112.33385117 13.70045135 112.31984772 14.66870117 112.30541992 C15.66090668 112.30276123 16.65311218 112.30010254 17.67538452 112.29736328 C19.83290133 112.29040083 21.9904046 112.27696058 24.14784813 112.257864 C27.56558037 112.2302863 30.98263155 112.22532635 34.40046692 112.22737122 C44.1188615 112.23090726 53.8368012 112.2079292 63.55493164 112.1340332 C69.49794005 112.09045615 75.43993116 112.08579676 81.38305092 112.10561562 C83.645642 112.10551817 85.90828327 112.09067276 88.17067528 112.06065941 C91.3430464 112.01970712 94.51182885 112.02826468 97.68432617 112.04760742 C98.6139769 112.02348282 99.54362762 111.99935822 100.50144958 111.97450256 C106.04343516 112.07017304 108.66430676 113.10411773 112.64472961 117.05952454 C113.78795698 118.35148545 114.91559026 119.6582894 116 121 C115.01 121 114.02 121 113 121 C112.31565887 120.18663681 111.63131775 119.37327362 110.92623901 118.53526306 C106.76087445 114.9264345 103.52073845 115.33154449 98.18017578 115.43579102 C97.1958255 115.43494507 96.21147522 115.43409912 95.19729614 115.43322754 C93.06327089 115.43440097 90.92922831 115.44694456 88.79532242 115.46954536 C85.41531748 115.50421391 82.0366262 115.50699611 78.65646362 115.50120544 C70.26162372 115.49290094 61.86720972 115.53444709 53.47253418 115.58410645 C46.37880564 115.62526192 39.28585167 115.64282122 32.19201279 115.62675285 C28.86619282 115.62887695 25.5419139 115.6660116 22.21633911 115.70399475 C20.17042823 115.70235651 18.12451775 115.69898468 16.07861328 115.69360352 C15.15786011 115.71367966 14.23710693 115.7337558 13.28845215 115.75444031 C7.87815429 115.69512006 4.17397786 114.86375482 0.25845146 110.9609766 C-2.24766729 107.05582779 -1.9183105 102.92713298 -1.81054688 98.4206543 C-1.81317535 97.36799881 -1.81580383 96.31534332 -1.81851196 95.23078918 C-1.81873315 91.76092315 -1.76920204 88.29368764 -1.71875 84.82421875 C-1.70822888 82.41381405 -1.70066047 80.00339481 -1.69592285 77.5929718 C-1.67489027 71.25534561 -1.61095093 64.91882723 -1.53894043 58.581604 C-1.48705503 53.39298304 -1.4651071 48.20443941 -1.44481659 43.0156126 C-1.40257211 32.32104104 -1.3412935 21.62640636 -1.22460938 10.93237305 C-1.21720734 9.93551483 -1.2098053 8.93865662 -1.20217896 7.91159058 C-1.19068817 7.01015823 -1.17919739 6.10872589 -1.1673584 5.17997742 C-1.15918846 4.39226298 -1.15101852 3.60454855 -1.14260101 2.79296398 C-1 1 -1 1 0 0 Z " fill="#BFBFBF" transform="translate(239,177)"/>
<path d="M0 0 C2.51685468 1.07865201 3.86806391 1.82293783 5.52824402 4.0509491 C9.35868308 7.07136081 13.0561748 6.51586183 17.7980957 6.43481445 C18.79205353 6.43390808 19.78601135 6.43300171 20.81008911 6.43206787 C22.96814039 6.42800308 25.12618903 6.41500601 27.28414345 6.39415932 C30.70176755 6.36304467 34.1184261 6.35916346 37.53617859 6.36308289 C47.25277543 6.36960592 56.96893487 6.32919298 66.68530273 6.2644043 C72.6293759 6.2266664 78.5727095 6.22285513 84.51686668 6.23943138 C86.78027881 6.23866773 89.04372738 6.22461717 91.3069706 6.19695473 C94.47672798 6.15861675 97.64382197 6.1632002 100.8137207 6.17700195 C101.74539566 6.15490158 102.67707062 6.13280121 103.63697815 6.11003113 C108.37927676 6.17680011 111.42513035 6.76407758 115.0869751 9.89935303 C118.96897119 14.41405562 118.94586642 18.68627381 118.79467773 24.43334961 C118.79569992 25.4584967 118.79672211 26.4836438 118.79777527 27.53985596 C118.79291741 30.91175844 118.73855779 34.28091729 118.68359375 37.65234375 C118.67053124 39.99645 118.66057016 42.34057542 118.65357971 44.68470764 C118.62690623 50.84190014 118.55818731 56.99792902 118.48065186 63.15466309 C118.40892887 69.44214132 118.3770487 75.72980835 118.34179688 82.01757812 C118.26681782 94.34556216 118.14741035 106.67268416 118 119 C117.34 119 116.68 119 116 119 C115.67 92.93 115.34 66.86 115 40 C100.335625 40.1546875 100.335625 40.1546875 85.375 40.3125 C80.75830322 40.34984253 80.75830322 40.34984253 76.04833984 40.38793945 C73.60252354 40.42023137 71.15672117 40.45360536 68.7109375 40.48828125 C67.44612549 40.49452515 66.18131348 40.50076904 64.87817383 40.50720215 C63.66073486 40.52714233 62.4432959 40.54708252 61.18896484 40.56762695 C59.61011002 40.58428154 59.61011002 40.58428154 57.99935913 40.60127258 C54.51219037 41.06484821 52.04725575 42.28235329 49 44 C50.36983503 40.83884224 50.9890638 40.0072908 54 38 C56.63859558 37.75949097 56.63859558 37.75949097 59.84838867 37.77294922 C61.64991646 37.77317581 61.64991646 37.77317581 63.48783875 37.77340698 C64.78478165 37.78372955 66.08172455 37.79405212 67.41796875 37.8046875 C68.75889373 37.80841845 70.09982144 37.81126503 71.44075012 37.81326294 C74.96714833 37.82089301 78.49338134 37.84053597 82.01971436 37.8626709 C85.61923996 37.8831429 89.21879231 37.89226755 92.81835938 37.90234375 C99.87898021 37.92378257 106.93946194 37.95895954 114 38 C114 31.4 114 24.8 114 18 C93.21 18 72.42 18 51 18 C51 17.67 51 17.34 51 17 C72.12 17 93.24 17 115 17 C113.45957252 12.19695965 113.45957252 12.19695965 111 10 C108.21911742 9.07624765 105.6864095 8.8782629 102.7696991 8.8888855 C101.93290115 8.8892128 101.09610321 8.8895401 100.23394775 8.88987732 C99.32425232 8.89511917 98.41455688 8.90036102 97.47729492 8.90576172 C95.47812413 8.90854787 93.47895318 8.91121781 91.4797821 8.91378784 C89.8916549 8.91836313 89.8916549 8.91836313 88.27144432 8.92303085 C82.66204866 8.93437696 77.05273392 8.91387526 71.44335938 8.8984375 C64.30640864 8.880141 57.16989091 8.87147838 50.03295898 8.90039062 C44.26383228 8.92292721 38.49564633 8.91150208 32.7265873 8.87738419 C30.53020822 8.87061526 28.33375367 8.87629396 26.13744164 8.89474106 C23.0608697 8.91891838 19.98735464 8.89968885 16.91088867 8.87060547 C16.00726593 8.88799271 15.10364319 8.90537994 14.17263794 8.92329407 C9.12764642 8.82426541 6.5438694 8.09461402 2.88056946 4.50808716 C0 1.26775133 0 1.26775133 0 0 Z " fill="#C9C9C9" transform="translate(191,133)"/>
<path d="M0 0 C9.57 0 19.14 0 29 0 C29 2.31 29 4.62 29 7 C25.66666667 7.66666667 22.33333333 8.33333333 19 9 C19 18.24 19 27.48 19 37 C16.03 37 13.06 37 10 37 C9.97102565 32.72918086 9.95321004 28.45838691 9.9375 24.1875 C9.92912109 22.97255859 9.92074219 21.75761719 9.91210938 20.50585938 C9.90888672 19.34248047 9.90566406 18.17910156 9.90234375 16.98046875 C9.89710693 15.90692139 9.89187012 14.83337402 9.88647461 13.72729492 C10 11 10 11 11 8 C10.28972656 8.01160156 9.57945312 8.02320313 8.84765625 8.03515625 C7.92855469 8.04417969 7.00945312 8.05320312 6.0625 8.0625 C5.14597656 8.07410156 4.22945313 8.08570313 3.28515625 8.09765625 C1 8 1 8 0 7 C0 4.69 0 2.38 0 0 Z " fill="#2D465A" transform="translate(296,327)"/>
<path d="M0 0 C4.81385859 0.43918925 6.79592072 2.36416361 10.0625 5.8125 C11.31740234 7.12154297 11.31740234 7.12154297 12.59765625 8.45703125 C13.78681641 9.71580078 13.78681641 9.71580078 15 11 C15.7005098 11.50748779 16.40101959 12.01497559 17.12275696 12.5378418 C20.06901932 16.40210651 19.51747947 20.20909275 19.43823242 24.9375 C19.43721024 25.94603027 19.43618805 26.95456055 19.43513489 27.99365234 C19.42724648 31.32946699 19.39124652 34.66437776 19.35546875 38 C19.34546772 40.31639887 19.33738094 42.63280673 19.33113098 44.94921875 C19.3101814 51.05031873 19.2661011 57.15102803 19.21636963 63.25195312 C19.14114895 73.01760044 19.10310296 82.78348232 19.06087685 92.54931641 C19.0431559 95.96393894 19.01702253 99.3784143 18.98930359 102.79296875 C18.97608528 104.88281186 18.96296262 106.97265559 18.94995117 109.0625 C18.94007172 110.01431152 18.93019226 110.96612305 18.92001343 111.94677734 C18.91560745 112.82156738 18.91120148 113.69635742 18.90666199 114.59765625 C18.90054492 115.35570557 18.89442785 116.11375488 18.88812542 116.89477539 C19.00252041 119.04742835 19.40750291 120.93192994 20 123 C18.08157319 121.40177526 17.09334189 120.51166557 16.63758564 118.0133791 C16.64336722 117.25222892 16.64914881 116.49107874 16.65510559 115.7068634 C16.65412872 114.83081451 16.65315186 113.95476562 16.65214539 113.0521698 C16.66614883 112.09369644 16.68015228 111.13522308 16.69458008 110.14770508 C16.69723877 109.13599243 16.69989746 108.12427979 16.70263672 107.08190918 C16.70959955 104.88183108 16.72304042 102.68176627 16.742136 100.48176003 C16.76971094 96.9968216 16.77467378 93.51255113 16.77262878 90.0275116 C16.7690925 80.11795953 16.79207705 70.2088536 16.8659668 60.29956055 C16.90953896 54.23984854 16.91420507 48.18113428 16.89438438 42.1213131 C16.89448185 39.81406559 16.909331 37.5067689 16.93934059 35.19971657 C16.98028323 31.96510112 16.9717378 28.73400656 16.95239258 25.49926758 C16.98857948 24.07673927 16.98857948 24.07673927 17.02549744 22.62547302 C16.93292506 17.15962122 16.02568435 14.4566799 12.12016296 10.53129578 C10.75887693 9.3402227 9.38632523 8.16183351 8 7 C7.0310585 6.01027522 6.07087364 5.01179338 5.125 4 C3.24362573 1.7715451 3.24362573 1.7715451 1 2 C-2.47816973 9.26505332 -3.58546247 15.33938774 -3.53344727 23.34960938 C-3.54206284 24.43716019 -3.55067841 25.524711 -3.55955505 26.6452179 C-3.58210994 30.21164289 -3.57549554 33.77727549 -3.56640625 37.34375 C-3.57164606 39.83899161 -3.57792385 42.33423124 -3.58518982 44.82946777 C-3.5969006 50.71408029 -3.58735952 56.59841237 -3.57078546 62.48300505 C-3.55984681 67.16087973 -3.57197732 71.83830027 -3.59692383 76.51611328 C-3.6310596 82.99221954 -3.64056619 89.4678605 -3.6301403 95.94404602 C-3.62932283 98.40311121 -3.63614694 100.86219176 -3.65091133 103.32121277 C-3.66842115 106.76480365 -3.65375948 110.20686013 -3.63110352 113.65039062 C-3.64279572 114.65536087 -3.65448792 115.66033112 -3.66653442 116.695755 C-3.50882393 128.5370957 2.41952739 136.27267285 10.375 144.4375 C10.91125 144.953125 11.4475 145.46875 12 146 C4.75340578 143.60547321 0.05338623 137.4247991 -3.4375 130.8125 C-6.4963683 124.51644372 -6.15312564 117.57978521 -6.16113281 110.74707031 C-6.16609772 109.7283786 -6.17106262 108.70968689 -6.17617798 107.66012573 C-6.19074906 104.29945187 -6.19759321 100.93882522 -6.203125 97.578125 C-6.20888062 95.23411051 -6.2146383 92.89009602 -6.22039795 90.54608154 C-6.23089357 85.63358339 -6.23674565 80.72110153 -6.24023438 75.80859375 C-6.24571591 69.52979816 -6.26974301 63.25121976 -6.29820633 56.97249222 C-6.31687717 52.13046652 -6.32204068 47.28849267 -6.32357025 42.44643402 C-6.32658727 40.13250288 -6.33458349 37.81857244 -6.34775543 35.50467682 C-6.36490866 32.25978808 -6.36291291 29.01542414 -6.35644531 25.77050781 C-6.3656601 24.82470856 -6.37487488 23.8789093 -6.3843689 22.90444946 C-6.33326056 14.67286534 -4.79842624 6.85489463 0 0 Z " fill="#818C95" transform="translate(172,132)"/>
<path d="M0 0 C-0.96099609 0.29390625 -0.96099609 0.29390625 -1.94140625 0.59375 C-8.04937226 2.70559518 -11.54125736 5.01725227 -15.4296875 10.1953125 C-17.14177172 12.16293168 -18.69023584 12.86469219 -21 14 C-21.67958603 16.39719432 -21.67958603 16.39719432 -22 19 C-22.33194115 19.61740555 -22.66388229 20.2348111 -23.00588226 20.8709259 C-24.15034133 23.32198181 -24.26118221 24.99447886 -24.28088379 27.69018555 C-24.29230408 28.62914169 -24.30372437 29.56809784 -24.31549072 30.5355072 C-24.3188443 32.07060692 -24.3188443 32.07060692 -24.32226562 33.63671875 C-24.33219543 34.72018082 -24.34212524 35.80364288 -24.35235596 36.91993713 C-24.38159392 40.50915057 -24.39520528 44.09818696 -24.40625 47.6875 C-24.41775731 50.18652347 -24.42927273 52.68554691 -24.4407959 55.18457031 C-24.45913054 59.75978625 -24.47172899 64.33495162 -24.4777894 68.91020012 C-24.48583881 74.95229326 -24.51028219 80.99376236 -24.5625 87.03564453 C-24.61776116 93.53075189 -24.64329729 100.02532454 -24.6471405 106.5206604 C-24.65317048 108.98927258 -24.6691493 111.45788229 -24.69551086 113.92636108 C-25.23551519 131.95625927 -25.23551519 131.95625927 -18 148 C-17.57755005 148.66773438 -17.1551001 149.33546875 -16.71984863 150.0234375 C-15.85983944 151.37966116 -14.94024723 152.69811922 -14 154 C-19.82450958 151.59723255 -22.67656258 146.13393918 -25.05078125 140.51171875 C-26.19948952 137.18536448 -27 134.53988955 -27 131 C-27.53625 131.02320313 -28.0725 131.04640625 -28.625 131.0703125 C-34.25524436 131.19995628 -39.73085126 130.7990442 -45.3125 130.125 C-45.99376953 130.04652832 -46.67503906 129.96805664 -47.37695312 129.88720703 C-51.19599735 129.39809149 -54.50003612 128.61120194 -58 127 C-54.70256437 125.90085479 -54.17978687 126.15018022 -51 127 C-49.04946236 127.14568403 -47.09534935 127.24659467 -45.140625 127.31640625 C-44.02558594 127.35830078 -42.91054687 127.40019531 -41.76171875 127.44335938 C-40.60285156 127.48267578 -39.44398438 127.52199219 -38.25 127.5625 C-36.48849609 127.62727539 -36.48849609 127.62727539 -34.69140625 127.69335938 C-31.79440645 127.79934717 -28.8972185 127.90016916 -26 128 C-26 121.4 -26 114.8 -26 108 C-27.48113281 108.03480469 -28.96226562 108.06960938 -30.48828125 108.10546875 C-32.42967618 108.13360491 -34.37108335 108.16090525 -36.3125 108.1875 C-37.28896484 108.21263672 -38.26542969 108.23777344 -39.27148438 108.26367188 C-40.20927734 108.27333984 -41.14707031 108.28300781 -42.11328125 108.29296875 C-43.40939331 108.31653442 -43.40939331 108.31653442 -44.73168945 108.34057617 C-47.45018536 107.93240678 -48.30363829 107.10407096 -50 105 C-49.505 104.01 -49.505 104.01 -49 103 C-48.35675781 103.49113281 -47.71351563 103.98226562 -47.05078125 104.48828125 C-42.9743774 106.50821504 -39.66166443 106.33376355 -35.1875 106.1875 C-34.00510742 106.16719727 -34.00510742 106.16719727 -32.79882812 106.14648438 C-30.86558831 106.11133456 -28.93270318 106.05753361 -27 106 C-27.00666183 105.0324881 -27.01332367 104.0649762 -27.02018738 103.06814575 C-27.08119451 93.91785551 -27.12606634 84.76760692 -27.15543652 75.61715889 C-27.171044 70.91363118 -27.1921917 66.21026863 -27.22631836 61.50683594 C-27.25908815 56.96159127 -27.27688994 52.41650473 -27.28463173 47.87115097 C-27.29014377 46.14333485 -27.30090692 44.41552666 -27.31719017 42.68777847 C-27.4349673 29.66440507 -26.83606384 18.30556041 -18 8 C-6.67029973 -2.47048138 -6.67029973 -2.47048138 0 0 Z " fill="#D5D5D5" transform="translate(242,152)"/>
<path d="M0 0 C5.40843412 4.47594548 6.70736667 10.36730765 8 17 C8.96655518 17.05945801 8.96655518 17.05945801 9.95263672 17.12011719 C12.92814432 17.31297909 15.9012809 17.53134418 18.875 17.75 C20.39480469 17.8428125 20.39480469 17.8428125 21.9453125 17.9375 C32.75287223 18.76885075 41.64318623 21.76036858 49 30 C50.5 32.9375 50.5 32.9375 51 35 C50.0409375 33.948125 50.0409375 33.948125 49.0625 32.875 C39.9335868 23.79766258 30.08801231 20.60159477 17.5 20.3125 C16.48679687 20.27833984 15.47359375 20.24417969 14.4296875 20.20898438 C11.95349493 20.1272233 9.47676817 20.0619192 7 20 C7 26.93 7 33.86 7 41 C13.11820164 40.88153755 13.11820164 40.88153755 19.2355957 40.72973633 C20.38161255 40.71849731 20.38161255 40.71849731 21.55078125 40.70703125 C22.33106689 40.6913208 23.11135254 40.67561035 23.9152832 40.65942383 C26 41 26 41 29 44 C22.07 43.67 15.14 43.34 8 43 C8.01047363 45.24989746 8.02094727 47.49979492 8.03173828 49.81787109 C8.06499371 57.28169031 8.0870157 64.74551295 8.10362434 72.20938683 C8.1140269 76.73126546 8.12812109 81.25306768 8.15087891 85.77490234 C8.17273383 90.14507414 8.18459511 94.51517279 8.18975449 98.88539505 C8.19342766 100.5462115 8.20059998 102.20702429 8.21146011 103.8678093 C8.34882892 125.76111369 8.34882892 125.76111369 3 135 C2 132 2 132 3.41125488 128.49519348 C5.46175752 123.36186635 5.43608922 118.54888333 5.41992188 113.0769043 C5.42839142 112.01075897 5.43686096 110.94461365 5.44558716 109.84616089 C5.46889281 106.33872385 5.46998072 102.83172722 5.46875 99.32421875 C5.47585596 96.87335537 5.4835556 94.42249365 5.49182129 91.97163391 C5.50525177 86.83984756 5.50684146 81.708215 5.50097656 76.57641602 C5.49508523 70.01956782 5.52565659 63.46346127 5.56609344 56.9067564 C5.59201994 51.84591233 5.59484325 46.78524558 5.59120178 41.72434425 C5.5928887 39.30796255 5.60248967 36.89157228 5.62034607 34.47525597 C5.64263029 31.08676785 5.63278403 27.69976496 5.61523438 24.3112793 C5.62849762 23.32546371 5.64176086 22.33964813 5.65542603 21.32395935 C5.57706507 14.76966003 4.05894791 10.0384496 1.07212067 4.20390034 C0 2 0 2 0 0 Z " fill="#A5ABAF" transform="translate(323,131)"/>
<path d="M0 0 C2.64 0 5.28 0 8 0 C8 12.21 8 24.42 8 37 C5.36 37 2.72 37 0 37 C0 24.79 0 12.58 0 0 Z " fill="#213C53" transform="translate(286,327)"/>
<path d="M0 0 C4.27234855 4.02085841 5.08339176 8.15157343 5.26742554 13.89945984 C5.28533647 15.86218721 5.29229151 17.8250335 5.29052734 19.7878418 C5.30060318 21.40125206 5.30060318 21.40125206 5.31088257 23.04725647 C5.32985658 26.59795778 5.3337868 30.14846992 5.3359375 33.69921875 C5.34236687 36.17535987 5.34909533 38.65150024 5.35610962 41.12763977 C5.36808165 46.31842814 5.37179061 51.50914997 5.37060547 56.69995117 C5.37040253 63.33296716 5.39767995 69.96555351 5.43214989 76.59846783 C5.4544526 81.71419715 5.45844193 86.82982374 5.45738602 91.94559669 C5.45973784 94.38988535 5.46853757 96.83417703 5.48405075 99.27841759 C5.5037739 102.70764065 5.49784662 106.13594586 5.48583984 109.56518555 C5.49707886 110.56349396 5.50831787 111.56180237 5.51989746 112.59036255 C5.45928135 119.44635004 4.43067836 125.9561846 1 132 C-1.13872719 133.30689526 -1.13872719 133.30689526 -3 134 C-3.99 132.68 -4.98 131.36 -6 130 C-4.35 130.66 -2.7 131.32 -1 132 C1.77937152 125.18287984 2.42838569 119.18987553 2.37231445 111.87158203 C2.37596512 110.79553711 2.37961578 109.71949219 2.38337708 108.61083984 C2.39144047 105.07633361 2.37790524 101.542292 2.36328125 98.0078125 C2.36276206 95.53595988 2.36328203 93.06410685 2.36479187 90.59225464 C2.36470233 85.41935028 2.35431112 80.24660235 2.33618164 75.07373047 C2.31351928 68.46445197 2.31294819 61.8554023 2.31969929 55.24609566 C2.32305177 50.14323924 2.31638469 45.04043435 2.30657005 39.93758774 C2.30273804 37.50169012 2.30156149 35.06578674 2.3031559 32.62988663 C2.30352953 29.21555042 2.29082255 25.80150001 2.2746582 22.38720703 C2.27713562 21.39361176 2.27961304 20.40001648 2.28216553 19.37631226 C2.23234091 12.73402106 1.38512029 6.49404483 0 0 Z " fill="#596A75" transform="translate(374,166)"/>
<path d="M0 0 C0.91378418 -0.0071553 1.82756836 -0.01431061 2.76904297 -0.02168274 C3.76955688 -0.02437164 4.7700708 -0.02706055 5.80090332 -0.02983093 C7.38439575 -0.03968773 7.38439575 -0.03968773 8.99987793 -0.04974365 C12.50191315 -0.06949078 16.00390537 -0.0811449 19.50598145 -0.09111023 C21.30163292 -0.09722352 21.30163292 -0.09722352 23.13356018 -0.10346031 C29.47449573 -0.12433102 35.81540959 -0.13862619 42.15637207 -0.147995 C48.69192434 -0.15903752 55.2271341 -0.19341008 61.76256561 -0.23316669 C66.79850883 -0.25937765 71.83437117 -0.26769103 76.87037659 -0.27127647 C79.27838951 -0.27613393 81.68639903 -0.28772373 84.09434509 -0.30631447 C87.47596907 -0.33079131 90.85671696 -0.32972441 94.23840332 -0.32279968 C95.22272339 -0.33560974 96.20704346 -0.3484198 97.22119141 -0.36161804 C106.20473015 -0.29499709 114.77134949 1.96969788 121.72473145 7.89717102 C122.46078613 8.51076477 123.19684082 9.12435852 123.9552002 9.75654602 C124.47727051 10.21545227 124.99934082 10.67435852 125.53723145 11.14717102 C125.20723145 11.80717102 124.87723145 12.46717102 124.53723145 13.14717102 C124.05254395 12.76045227 123.56785645 12.37373352 123.06848145 11.97529602 C122.39816895 11.45451477 121.72785645 10.93373352 121.03723145 10.39717102 C120.38754395 9.88670227 119.73785645 9.37623352 119.06848145 8.85029602 C111.51222429 3.76614769 105.83505083 2.57194374 96.7052002 2.69306946 C94.96243553 2.6921933 94.96243553 2.6921933 93.1844635 2.69129944 C89.36424336 2.69407447 85.54481441 2.72514082 81.72473145 2.75654602 C79.06814249 2.76401048 76.41159672 2.76989931 73.75500488 2.7736969 C67.49005163 2.78609391 61.22537997 2.81887054 54.96055031 2.85909486 C47.82390202 2.90391517 40.68723977 2.92582528 33.55048561 2.9458766 C18.87925612 2.98760654 4.20824773 3.05789426 -10.46276855 3.14717102 C-6.79658743 0.70305027 -4.30301448 0.02315611 0 0 Z " fill="#C9C9C9" transform="translate(197.4627685546875,117.85282897949219)"/>
<path d="M0 0 C3.875 1.875 3.875 1.875 5 3 C5.08585252 4.36934516 5.10249502 5.74311198 5.09092712 7.11509705 C5.08393295 8.44595337 5.08393295 8.44595337 5.07679749 9.80369568 C5.0668425 10.78491898 5.05688751 11.76614227 5.04663086 12.77709961 C5.03384993 14.9082775 5.02141001 17.03945745 5.00926208 19.17063904 C5.00134581 20.30762175 4.99342953 21.44460445 4.98527336 22.61604118 C4.94329126 29.88301287 4.95500169 37.15014285 4.95516109 44.41721249 C4.95216701 50.80695165 4.93156317 57.19571396 4.87329102 63.58520508 C4.81802285 69.75952382 4.8116877 75.93220168 4.83798409 82.10669136 C4.83921678 84.45695313 4.82278289 86.80729524 4.78806877 89.15730095 C4.00203382 102.04738297 4.00203382 102.04738297 8.3039856 113.72732544 C10.74814159 116.19432829 13.05527065 118.1734921 16 120 C12.08616175 120 10.89678071 118.91948274 7.86694336 116.46972656 C1.26228396 109.60073072 1.82509024 102.29033694 1.94398499 93.16448975 C2.00501323 90.93776797 2.06666861 88.7110633 2.12890625 86.484375 C2.15521102 84.18138551 2.17661267 81.87833528 2.19334412 79.57525635 C2.24832915 73.53316277 2.36078459 67.49358524 2.48822021 61.45263672 C2.68243502 51.77157924 2.7877759 42.08914126 2.89524651 32.40680695 C2.94078327 29.03056459 3.01009675 25.65546495 3.08338928 22.27972412 C3.11665861 20.20960171 3.1495128 18.13947257 3.18188477 16.06933594 C3.20838104 15.13414124 3.23487732 14.19894653 3.26217651 13.2354126 C3.32418142 8.01889874 2.86092908 4.55606746 0 0 Z " fill="#70808A" transform="translate(352,175)"/>
<path d="M0 0 C0.33 0 0.66 0 1 0 C1 26.73 1 53.46 1 81 C-5.93 81 -12.86 81 -20 81 C-20.99 80.01 -21.98 79.02 -23 78 C-22.505 77.01 -22.505 77.01 -22 76 C-20.35 76.99 -18.7 77.98 -17 79 C-11.39 79 -5.78 79 0 79 C0 52.93 0 26.86 0 0 Z " fill="#B0B0B1" transform="translate(215,179)"/>
<path d="M0 0 C0.88816406 0.15339844 1.77632812 0.30679687 2.69140625 0.46484375 C8.40655989 1.28129427 14.17482093 1.36265724 19.9375 1.5625 C21.67870117 1.62727539 21.67870117 1.62727539 23.45507812 1.69335938 C26.30328232 1.79884842 29.15156529 1.90096555 32 2 C32 3.98 32 5.96 32 8 C31.67 7.01 31.34 6.02 31 5 C30.46375 5.02320313 29.9275 5.04640625 29.375 5.0703125 C23.74475564 5.19995628 18.26914874 4.7990442 12.6875 4.125 C12.00623047 4.04652832 11.32496094 3.96805664 10.62304688 3.88720703 C6.80400265 3.39809149 3.49996388 2.61120194 0 1 C0 0.67 0 0.34 0 0 Z " fill="#727E88" transform="translate(184,278)"/>
<path d="M0 0 C-0.96099609 0.29390625 -0.96099609 0.29390625 -1.94140625 0.59375 C-8.04937226 2.70559518 -11.54125736 5.01725227 -15.4296875 10.1953125 C-17.14109606 12.16215517 -18.68561818 12.87474854 -21 14 C-21.62277985 16.27497035 -21.62277985 16.27497035 -22 19 C-22.90901356 21.3812203 -23.95138062 23.6748005 -25 26 C-26.07866223 23.27085459 -26.03293178 22.10022717 -25.1015625 19.265625 C-20.92227786 10.73015478 -15.9200735 4.1351319 -7.1875 -0.0625 C-3.96763417 -1.00951936 -3.04917673 -0.94584007 0 0 Z " fill="#CECECE" transform="translate(242,152)"/>
<path d="M0 0 C0.33 0 0.66 0 1 0 C0.99887207 0.78536133 0.99774414 1.57072266 0.99658203 2.37988281 C1.00882955 6.00408471 1.06667015 9.6262581 1.125 13.25 C1.12242187 14.48492187 1.11984375 15.71984375 1.1171875 16.9921875 C1.3584046 28.4499999 5.38078616 36.83493469 12 46 C8.45034523 44.56323497 6.92912058 42.88698102 4.875 39.6875 C4.37742188 38.92824219 3.87984375 38.16898437 3.3671875 37.38671875 C0.52883281 32.43176243 -0.24414459 28.68698947 -0.1953125 22.94921875 C-0.1924826 22.29041214 -0.18965271 21.63160553 -0.18673706 20.95283508 C-0.17560924 18.86419938 -0.15051948 16.77600444 -0.125 14.6875 C-0.11496059 13.26498018 -0.10583642 11.8424536 -0.09765625 10.41992188 C-0.07569447 6.94647319 -0.04121646 3.47327967 0 0 Z " fill="#B4B9BB" transform="translate(216,260)"/>
<path d="M0 0 C7.80266984 0.33924651 14.72105794 4.27543297 20 10 C19.67 10.66 19.34 11.32 19 12 C18.55011719 11.62488281 18.10023438 11.24976563 17.63671875 10.86328125 C12.16047564 6.50643052 6.44543127 3.67769755 0 1 C0 0.67 0 0.34 0 0 Z " fill="#C4C4C4" transform="translate(303,119)"/>
<path d="M0 0 C0.66 0.33 1.32 0.66 2 1 C-1.96 4.96 -5.92 8.92 -10 13 C-10.66 12.67 -11.32 12.34 -12 12 C-8.27653164 7.57905197 -4.70478962 3.42166518 0 0 Z " fill="#485A6A" transform="translate(76,18)"/>
<path d="M0 0 C1.19496094 0.72123047 1.19496094 0.72123047 2.4140625 1.45703125 C6.84995759 3.36572249 10.6012911 3.55426251 15.375 3.6875 C16.62216797 3.73874023 16.62216797 3.73874023 17.89453125 3.79101562 C19.92923351 3.87287146 21.96459208 3.93812701 24 4 C24 4.33 24 4.66 24 5 C20.56265937 5.08703823 17.12560163 5.14040272 13.6875 5.1875 C12.22280273 5.22520508 12.22280273 5.22520508 10.72851562 5.26367188 C9.32182617 5.27817383 9.32182617 5.27817383 7.88671875 5.29296875 C7.02264404 5.3086792 6.15856934 5.32438965 5.26831055 5.34057617 C2.52318226 4.92840806 1.63848247 4.20373046 0 2 C0 1.34 0 0.68 0 0 Z " fill="#657581" transform="translate(192,255)"/>
<path d="M0 0 C2.97 0 5.94 0 9 0 C8.67 1.32 8.34 2.64 8 4 C7.67 3.34 7.34 2.68 7 2 C4.36 2.33 1.72 2.66 -1 3 C-0.67 2.01 -0.34 1.02 0 0 Z " fill="#5F6D7A" transform="translate(383,327)"/>
<path d="M0 0 C2.97 0 5.94 0 9 0 C9.33 0.66 9.66 1.32 10 2 C7.36 2.66 4.72 3.32 2 4 C1.34 2.68 0.68 1.36 0 0 Z " fill="#576775" transform="translate(355,327)"/>
</svg>